<svg width="112" height="69" viewBox="0 0 112 69" fill="none" xmlns="http://www.w3.org/2000/svg">
<path d="M78.3665 57.4047H46.6472M98.9642 57.4047H110.859V38.1448C111.018 23.7048 109.035 15.6847 90.7172 15.6847H74.4808C74.1459 15.6847 73.8143 15.7508 73.5052 15.8791C73.196 16.0074 72.9154 16.1954 72.6795 16.4323C72.4436 16.6692 72.2571 16.9502 72.1307 17.2593C72.0044 17.5683 71.9407 17.8993 71.9433 18.233V57.4047M9.91225 43.4586V52.0515C9.93815 53.4454 10.5108 54.7738 11.5075 55.7522C12.5043 56.7307 13.8459 57.2813 15.2451 57.2862H18.3575M71.6459 46.8957V7.38813C71.6564 6.68276 71.5264 5.98232 71.2633 5.32737C71.0003 4.67243 70.6094 4.07599 70.1135 3.57259C69.6175 3.06919 69.0262 2.66884 68.3739 2.39471C67.7215 2.12058 67.0211 1.97812 66.3131 1.97559H15.2451C13.8323 1.98079 12.4789 2.5423 11.48 3.5377C10.481 4.5331 9.91747 5.88166 9.91225 7.28936V8.88941M52.0989 48.5353H34.4947M90.5982 15.8032V36.3274C90.5982 36.9561 90.8488 37.559 91.295 38.0036C91.7411 38.4481 92.3462 38.6979 92.9772 38.6979H110.819M45.7551 30.7964H5.94733M41.81 20.9195H1.98242M88.814 46.6587C90.838 46.6548 92.8177 47.2492 94.5026 48.3669C96.1874 49.4845 97.5016 51.0751 98.2789 52.9372C99.0562 54.7994 99.2616 56.8495 98.8691 58.828C98.4767 60.8066 97.504 62.6246 96.0742 64.0521C94.6443 65.4796 92.8217 66.4524 90.8368 66.8473C88.8519 67.2422 86.7941 67.0415 84.9238 66.2706C83.0534 65.4997 81.4546 64.1932 80.3297 62.5166C79.2048 60.8399 78.6044 58.8684 78.6044 56.8516C78.6017 55.514 78.8639 54.189 79.3758 52.9524C79.8877 51.7159 80.6394 50.5921 81.5877 49.6453C82.536 48.6985 83.6624 47.9474 84.9023 47.4349C86.1423 46.9225 87.4716 46.6587 88.814 46.6587ZM85.2456 56.8516C85.2417 57.551 85.446 58.2357 85.8326 58.8194C86.2193 59.403 86.771 59.8593 87.4179 60.1305C88.0648 60.4017 88.7779 60.4757 89.467 60.3431C90.1561 60.2105 90.7903 59.8773 91.2893 59.3855C91.7883 58.8938 92.1298 58.2656 92.2706 57.5805C92.4114 56.8954 92.3451 56.1841 92.0801 55.5365C91.8152 54.8889 91.3635 54.3341 90.7821 53.9423C90.2007 53.5506 89.5158 53.3394 88.814 53.3354C88.348 53.3328 87.886 53.4217 87.4545 53.597C87.023 53.7723 86.6303 54.0306 86.2989 54.3571C85.9676 54.6836 85.704 55.072 85.5233 55.5C85.3425 55.928 85.2482 56.3873 85.2456 56.8516ZM18.3377 56.8516C18.3416 58.8628 18.9437 60.8278 20.0679 62.4982C21.1922 64.1685 22.7881 65.4694 24.654 66.2363C26.5199 67.0033 28.5721 67.2019 30.5513 66.8072C32.5304 66.4124 34.3478 65.442 35.7736 64.0184C37.1995 62.5949 38.1699 60.7822 38.5622 58.8093C38.9546 56.8364 38.7512 54.792 37.9779 52.9342C37.2046 51.0764 35.896 49.4888 34.2174 48.3718C32.5389 47.2548 30.5658 46.6587 28.5473 46.6587C27.2066 46.6613 25.8795 46.927 24.6418 47.4406C23.4041 47.9543 22.28 48.7058 21.3338 49.6523C20.3876 50.5988 19.6378 51.7217 19.1271 52.957C18.6164 54.1923 18.3549 55.5157 18.3575 56.8516H18.3377ZM24.9987 56.8516C24.9948 57.551 25.1991 58.2357 25.5858 58.8194C25.9724 59.403 26.5241 59.8593 27.171 60.1305C27.8179 60.4017 28.531 60.4757 29.2201 60.3431C29.9092 60.2105 30.5434 59.8773 31.0425 59.3855C31.5415 58.8938 31.883 58.2656 32.0238 57.5805C32.1645 56.8954 32.0983 56.1841 31.8333 55.5365C31.5684 54.8889 31.1166 54.3341 30.5353 53.9423C29.9539 53.5506 29.269 53.3394 28.5672 53.3354C27.6294 53.3354 26.7298 53.7053 26.0649 54.3641C25.4 55.023 25.0238 55.9173 25.0186 56.8516H24.9987Z" stroke="white" stroke-width="2" stroke-linecap="round" stroke-linejoin="round"/>
</svg>
